<svg xmlns="http://www.w3.org/2000/svg" width="1536" height="512" viewBox="0 0 1536 512" fill="none">
<path d="M306.056 321.208C299.187 321.208 293.176 319.92 288.024 317.344C282.872 314.768 278.701 311.149 275.512 306.488L272.936 319H251.96V186.52H275.512V240.8C278.456 236.752 282.32 233.195 287.104 230.128C292.011 227.061 298.328 225.528 306.056 225.528C314.643 225.528 322.309 227.613 329.056 231.784C335.803 235.955 341.139 241.659 345.064 248.896C348.989 256.133 350.952 264.352 350.952 273.552C350.952 282.752 348.989 290.971 345.064 298.208C341.139 305.323 335.803 310.965 329.056 315.136C322.309 319.184 314.643 321.208 306.056 321.208ZM301.088 300.6C308.571 300.6 314.765 298.085 319.672 293.056C324.579 288.027 327.032 281.525 327.032 273.552C327.032 265.579 324.579 259.016 319.672 253.864C314.765 248.712 308.571 246.136 301.088 246.136C293.483 246.136 287.227 248.712 282.32 253.864C277.536 258.893 275.144 265.395 275.144 273.368C275.144 281.341 277.536 287.904 282.32 293.056C287.227 298.085 293.483 300.6 301.088 300.6ZM371.991 319V186.52H395.543V319H371.991ZM431.016 359.48L452.176 312.928H446.656L411.144 227.736H436.72L462.296 291.952L488.976 227.736H514L456.04 359.48H431.016ZM529.398 319V227.736H550.19L552.214 240.064C555.158 235.648 559.022 232.152 563.806 229.576C568.712 226.877 574.355 225.528 580.734 225.528C594.84 225.528 604.838 230.987 610.726 241.904C614.038 236.875 618.454 232.888 623.974 229.944C629.616 227 635.75 225.528 642.374 225.528C654.272 225.528 663.411 229.085 669.79 236.2C676.168 243.315 679.358 253.741 679.358 267.48V319H655.806V269.688C655.806 261.837 654.272 255.827 651.206 251.656C648.262 247.485 643.662 245.4 637.406 245.4C631.027 245.4 625.875 247.731 621.95 252.392C618.147 257.053 616.246 263.555 616.246 271.896V319H592.694V269.688C592.694 261.837 591.16 255.827 588.094 251.656C585.027 247.485 580.304 245.4 573.926 245.4C567.67 245.4 562.579 247.731 558.654 252.392C554.851 257.053 552.95 263.555 552.95 271.896V319H529.398ZM701.718 359.48V227.736H722.694L725.27 240.8C728.214 236.752 732.078 233.195 736.862 230.128C741.768 227.061 748.086 225.528 755.814 225.528C764.4 225.528 772.067 227.613 778.814 231.784C785.56 235.955 790.896 241.659 794.822 248.896C798.747 256.133 800.71 264.352 800.71 273.552C800.71 282.752 798.747 290.971 794.822 298.208C790.896 305.323 785.56 310.965 778.814 315.136C772.067 319.184 764.4 321.208 755.814 321.208C748.944 321.208 742.934 319.92 737.782 317.344C732.63 314.768 728.459 311.149 725.27 306.488V359.48H701.718ZM750.846 300.6C758.328 300.6 764.523 298.085 769.43 293.056C774.336 288.027 776.79 281.525 776.79 273.552C776.79 265.579 774.336 259.016 769.43 253.864C764.523 248.712 758.328 246.136 750.846 246.136C743.24 246.136 736.984 248.712 732.078 253.864C727.294 258.893 724.902 265.395 724.902 273.368C724.902 281.341 727.294 287.904 732.078 293.056C736.984 298.085 743.24 300.6 750.846 300.6Z" fill="#FFFFFF"/>
<path fill-rule="evenodd" clip-rule="evenodd" d="M922.215 312.519C896.917 300.31 888 285.203 888 271C888 256.797 896.917 241.691 922.215 229.482C947.672 217.196 987.878 209 1044.98 209C1102 209 1163.67 217.165 1210.78 230.237C1234.41 236.795 1253.71 244.407 1266.83 252.432C1280.82 260.996 1284 267.618 1284 271C1284 274.382 1280.82 281.004 1266.83 289.568C1253.71 297.593 1234.41 305.206 1210.78 311.763C1163.67 324.836 1102 333 1044.98 333C987.878 333 947.672 324.804 922.215 312.519ZM1044.98 345C929.005 345 876 311.869 876 271C876 230.131 929.005 197 1044.98 197C1160.96 197 1296 230.131 1296 271C1296 311.869 1160.96 345 1044.98 345Z" fill="#FFFFFF"/>
<path fill-rule="evenodd" clip-rule="evenodd" d="M1237.78 167.684C1235.41 166.444 1232.51 166.922 1230.66 168.857L1188.66 212.857C1186.37 215.254 1186.46 219.052 1188.86 221.34C1191.25 223.628 1195.05 223.54 1197.34 221.143L1236.22 180.411L1270.68 198.44L1257.31 238.084C1256.26 241.224 1257.94 244.627 1261.08 245.686C1264.22 246.744 1267.63 245.057 1268.69 241.917L1283.69 197.417C1284.63 194.62 1283.4 191.552 1280.78 190.184L1237.78 167.684Z" fill="#FFFFFF"/>
<path fill-rule="evenodd" clip-rule="evenodd" d="M1237.78 374.316C1235.41 375.557 1232.51 375.078 1230.66 373.143L1188.66 329.143C1186.37 326.746 1186.46 322.948 1188.86 320.66C1191.25 318.372 1195.05 318.46 1197.34 320.857L1236.22 361.59L1270.68 343.56L1257.31 303.917C1256.26 300.777 1257.94 297.373 1261.08 296.315C1264.22 295.256 1267.63 296.944 1268.69 300.084L1283.69 344.584C1284.63 347.381 1283.4 350.448 1280.78 351.816L1237.78 374.316Z" fill="#FFFFFF"/>
<path fill-rule="evenodd" clip-rule="evenodd" d="M1113.31 333.462C1110.25 332.187 1106.74 333.634 1105.46 336.693L1090.33 373H1011.67L996.538 336.693C995.264 333.634 991.751 332.187 988.692 333.462C985.634 334.736 984.187 338.249 985.462 341.308L1002.13 381.308C1003.06 383.544 1005.24 385 1007.67 385H1094.33C1096.76 385 1098.94 383.544 1099.87 381.308L1116.54 341.308C1117.81 338.249 1116.37 334.736 1113.31 333.462Z" fill="#FFFFFF"/>
</svg>